<svg width="800" height="800" viewBox="0 0 800 800" fill="none" xmlns="http://www.w3.org/2000/svg">
<path d="M658.333 10C736.666 10 800 73.3337 800 151.667V648.333C800 726.666 736.666 790 658.333 790H141.667C63.3337 790 0 726.666 0 648.333V151.667C0 73.3337 63.3337 10 141.667 10H658.333ZM533.665 294.666C530.665 294.666 529.332 296 529.332 299.333V556C529.332 559.333 530.999 561.333 534.332 561.333H599.665C602.665 561.333 603.998 559.666 603.998 556V299.333C603.998 296.333 602.665 294.666 599.665 294.666H533.665ZM279.998 208.333C278.331 208.666 276.999 210.333 277.332 212C277.332 219.333 276.665 226.666 275.332 233.666C273.999 237.666 272.998 241.333 271.998 244.666L164.665 553.666C163.665 557.666 164.665 559.666 168.332 559.666H230.998C233.998 559.999 236.665 558 237.332 555L262.665 476.666H386.665L413.998 556C414.665 558.333 416.999 559.999 419.332 559.666H488.998C492.331 559.666 493.332 558 492.332 554.333L370.665 211C370.332 209.333 368.998 208.333 366.332 208.333H279.998ZM323.998 270C326.331 278 328.665 286.667 331.332 296C333.999 305.666 336.999 315.333 340.332 325.666C343.665 335.999 346.665 346 349.998 356.333C352.998 366.333 355.998 376 358.998 385C361.998 393.667 364.665 402 366.665 409H281.998C286.998 395 291.998 379.333 296.665 362.333C301.998 345.666 306.998 329 311.998 313C316.665 298.667 320.332 284.333 323.332 270H323.998ZM567.332 183C556.332 183 545.665 186.999 537.665 194.666C529.665 202.333 525.332 213 525.665 224.333C525.332 235.666 529.331 246.667 536.998 255C544.998 262.667 555.665 266.999 566.665 266.666C577.998 267.333 589.331 263 596.998 255C604.998 246.667 608.998 235.666 608.665 224.333C608.998 213.333 604.998 202.666 597.665 194.666C590.332 187 580.332 183 567.332 183Z" fill="#330000"/>
</svg>
