<svg width="800" height="800" viewBox="0 0 800 800" fill="none" xmlns="http://www.w3.org/2000/svg">
<path d="M644.444 552.723C644.444 598.723 607.135 636.014 561.111 636.014C515.087 636.014 477.778 598.723 477.778 552.723C477.778 506.722 515.087 469.431 561.111 469.431C607.135 469.431 644.444 506.722 644.444 552.723Z" fill="white"/>
<path d="M800 397.246C800 443.246 762.69 480.537 716.667 480.537C670.643 480.537 633.333 443.246 633.333 397.246C633.333 351.245 670.643 313.954 716.667 313.954C762.69 313.954 800 351.245 800 397.246Z" fill="white"/>
<path d="M638.889 241.768C638.889 287.769 601.579 325.06 555.556 325.06C509.532 325.06 472.222 287.769 472.222 241.768C472.222 195.768 509.532 158.477 555.556 158.477C601.579 158.477 638.889 195.768 638.889 241.768Z" fill="white"/>
<path d="M483.333 86.2913C483.333 132.292 446.024 169.583 400 169.583C353.976 169.583 316.667 132.292 316.667 86.2913C316.667 40.2908 353.976 3 400 3C446.024 3 483.333 40.2908 483.333 86.2913Z" fill="white"/>
<path d="M322.222 241.768C322.222 287.769 284.913 325.06 238.889 325.06C192.865 325.06 155.556 287.769 155.556 241.768C155.556 195.768 192.865 158.477 238.889 158.477C284.913 158.477 322.222 195.768 322.222 241.768Z" fill="white"/>
<path d="M166.667 397.246C166.667 443.246 129.357 480.537 83.3333 480.537C37.3096 480.537 0 443.246 0 397.246C0 351.245 37.3096 313.954 83.3333 313.954C129.357 313.954 166.667 351.245 166.667 397.246Z" fill="white"/>
<path d="M398.899 795.991C352.88 796.642 315.046 759.882 314.395 713.887C313.744 667.891 350.522 630.076 396.542 629.426C442.561 628.775 480.394 665.535 481.045 711.53C481.696 757.526 444.918 795.341 398.899 795.991Z" fill="white"/>
<path d="M241.238 648.281C195.219 648.932 157.386 612.172 156.735 566.176C156.084 520.18 192.862 482.366 238.881 481.715C284.9 481.064 322.734 517.824 323.385 563.82C324.036 609.816 287.257 647.63 241.238 648.281Z" fill="white"/>
<path d="M483.333 397.246C483.333 443.246 446.024 480.537 400 480.537C353.976 480.537 316.667 443.246 316.667 397.246C316.667 351.245 353.976 313.954 400 313.954C446.024 313.954 483.333 351.245 483.333 397.246Z" fill="white"/>
<path d="M633.333 391.693L711.111 316.731C653.727 316.731 636.573 276.172 636.111 252.874L569.444 322.283C622.778 328.947 634.259 371.333 633.333 391.693Z" fill="white"/>
<path d="M407.346 316.714L480.538 396.155C481.857 338.815 522.82 322.607 546.134 322.681L478.241 254.469C470.35 307.609 427.69 318.107 407.346 316.714Z" fill="white"/>
<path d="M320.649 565.649L242.21 639.92C299.592 640.427 316.386 681.136 316.642 704.437L383.921 635.62C330.648 628.486 319.542 586 320.649 565.649Z" fill="white"/>
<path d="M246.235 161.237L319.427 240.678C320.746 183.338 361.709 167.13 385.023 167.203L317.13 98.9924C309.239 152.132 266.579 162.63 246.235 161.237Z" fill="white"/>
<path d="M85.1239 316.714L158.316 396.155C159.635 338.815 200.598 322.607 223.912 322.681L156.019 254.469C148.128 307.609 105.468 318.107 85.1239 316.714Z" fill="white"/>
</svg>
