<svg width="800" height="800" viewBox="0 0 800 800" fill="none" xmlns="http://www.w3.org/2000/svg">
<path d="M742.906 327.436C761.07 272.96 754.815 213.283 725.768 163.732C682.083 87.7306 594.264 48.6297 508.497 67.0301C470.342 24.0792 415.524 -0.346297 358.053 0.00371066C270.384 -0.196294 192.598 56.2049 165.627 139.557C109.308 151.082 60.6943 186.308 32.2469 236.234C-11.7627 312.035 -1.72979 407.587 57.0665 472.589C38.9022 527.065 45.1571 586.741 74.205 636.292C117.889 712.294 205.708 751.395 291.476 732.994C329.606 775.945 384.449 800.371 441.919 799.996C529.638 800.221 607.45 743.77 634.421 660.343C690.74 648.818 739.353 613.592 767.801 563.666C811.76 487.864 801.702 392.387 742.931 327.386L742.906 327.436ZM441.969 747.72C406.867 747.77 372.865 735.494 345.919 713.019C347.145 712.369 349.271 711.194 350.647 710.344L510.073 618.342C518.229 613.717 523.233 605.042 523.183 595.666V371.087L590.561 409.962C591.287 410.312 591.762 411.012 591.862 411.813V597.791C591.762 680.493 524.734 747.545 441.969 747.72ZM119.616 610.142C102.027 579.791 95.6969 544.215 101.727 509.69C102.903 510.39 104.979 511.665 106.455 512.515L265.881 604.517C273.962 609.242 283.97 609.242 292.076 604.517L486.705 492.214V569.966C486.755 570.766 486.379 571.541 485.754 572.041L324.602 665.018C252.82 706.319 161.148 681.768 119.641 610.142H119.616ZM77.6577 262.409C95.1715 232.009 122.818 208.758 155.744 196.683C155.744 198.058 155.669 200.483 155.669 202.183V386.212C155.619 395.562 160.623 404.237 168.754 408.862L363.382 521.14L296.004 560.016C295.329 560.466 294.478 560.541 293.728 560.216L132.551 467.164C60.9195 425.713 36.3502 334.136 77.6327 262.434L77.6577 262.409ZM631.243 391.137L436.615 278.835L503.993 239.984C504.669 239.534 505.519 239.459 506.27 239.784L667.447 332.761C739.203 374.187 763.798 465.914 722.34 537.615C704.801 567.966 677.179 591.216 644.279 603.317V413.788C644.354 404.437 639.375 395.787 631.268 391.137H631.243ZM698.296 290.285C697.12 289.56 695.043 288.31 693.567 287.46L534.142 195.458C526.06 190.733 516.053 190.733 507.946 195.458L313.318 307.76V230.009C313.268 229.209 313.643 228.434 314.269 227.934L475.421 135.032C547.202 93.6557 638.974 118.281 680.357 190.033C697.846 220.333 704.176 255.809 698.246 290.285H698.296ZM276.689 428.863L209.286 389.987C208.561 389.637 208.085 388.937 207.985 388.137V202.158C208.035 119.356 275.263 52.2548 358.128 52.3048C393.181 52.3048 427.108 64.6051 454.054 87.0056C452.828 87.6556 450.726 88.8306 449.325 89.6806L289.9 181.683C281.743 186.308 276.739 194.958 276.789 204.333L276.689 428.813V428.863ZM313.293 350.011L399.986 299.985L486.68 349.986V450.013L399.986 500.014L313.293 450.013V350.011Z" fill="black"/>
</svg>
