<svg width="800" height="800" viewBox="0 0 800 800" fill="none" xmlns="http://www.w3.org/2000/svg">
<path d="M400 400C400 326.343 458.229 266.686 530 266.686C601.829 266.686 660 326.286 660 400C660 473.657 601.829 533.314 530 533.314C458.286 533.314 400 473.714 400 400Z" fill="#1ABCFE"/>
<path d="M140 666.686C140 593.028 198.229 533.314 270 533.314H400V666.686C400 740.286 341.771 800 270 800C198.229 800 140 740.286 140 666.686Z" fill="#0ACF83"/>
<path d="M400 0V266.686H530C601.829 266.686 660 206.971 660 133.314C660 59.7143 601.829 0 530 0H400Z" fill="#FF7262"/>
<path d="M140 133.314C140 206.971 198.229 266.686 270 266.686H400V0H270C198.229 0 140 59.7143 140 133.314Z" fill="#F24E1E"/>
<path d="M140 400C140 473.657 198.229 533.314 270 533.314H400V266.686H270C198.229 266.686 140 326.286 140 400Z" fill="#A259FF"/>
</svg>
