<svg width="800" height="800" viewBox="0 0 800 800" fill="none" xmlns="http://www.w3.org/2000/svg">
<g clip-path="url(#clip0_114_2)">
<path d="M286.812 671.159H18.1376C8.1238 671.159 0 679.279 0 689.296V781.723C0 791.736 8.1238 799.86 18.1376 799.86H286.812C296.826 799.86 304.949 791.736 304.949 781.723V689.296C304.949 679.279 296.826 671.159 286.812 671.159Z" fill="#2E5FD2"/>
<path d="M324.063 176.319H781.863C791.846 176.319 800 168.241 800 158.181V18.1375C800 8.15425 791.922 0 781.863 0H18.197C8.21378 0 0.0595703 8.07804 0.0595703 18.1375V589.571C0.0595703 599.555 8.13758 607.709 18.197 607.709H286.035C296.018 607.709 304.173 599.631 304.173 589.571L304.325 500.057C304.325 489.159 313.165 480.243 324.139 480.243H781.786C791.769 480.243 799.923 472.165 799.923 462.106V321.12C799.923 311.137 791.845 302.982 781.786 302.982H324.139C313.241 302.982 304.325 294.142 304.325 283.168V195.904C304.325 185.006 313.165 176.09 324.139 176.09L324.063 176.319Z" fill="#2E5FD2"/>
</g>
<defs>
<clipPath id="clip0_114_2">
<rect width="800" height="800" fill="white"/>
</clipPath>
</defs>
</svg>
