<svg width="800" height="800" viewBox="0 0 800 800" fill="none" xmlns="http://www.w3.org/2000/svg">
<g clip-path="url(#clip0_92_743)">
<path d="M800 0V800H0V0H800ZM608.889 363.035C541.752 363.035 498.794 405.956 498.794 462.337C498.794 523.543 534.832 552.495 589.079 575.606L607.873 583.67C642.159 598.667 662.603 607.797 662.603 633.575C662.602 655.086 642.705 670.654 611.556 670.654C574.476 670.654 553.511 651.314 537.396 625.003L476.305 660.495C498.375 704.101 543.479 737.372 613.295 737.372C684.698 737.372 737.866 700.292 737.866 632.609C737.866 569.829 701.803 541.905 637.93 514.515L619.137 506.464C586.883 492.496 572.914 483.365 572.914 460.812C572.914 442.565 586.87 428.597 608.889 428.597C630.476 428.597 644.381 437.702 657.27 460.812L715.81 423.226C691.048 379.67 656.685 363.035 608.889 363.035ZM360.495 367.327V622.946C360.495 660.521 344.914 670.185 320.216 670.185C294.387 670.185 283.644 652.47 271.835 631.518L210.642 668.565C228.369 706.083 263.226 737.231 323.416 737.231C390.032 737.231 435.67 701.803 435.67 623.962V367.327H360.495Z" fill="#F7DF1E"/>
</g>
<defs>
<clipPath id="clip0_92_743">
<rect width="800" height="800" fill="white"/>
</clipPath>
</defs>
</svg>
