<svg width="800" height="800" viewBox="0 0 800 800" fill="none" xmlns="http://www.w3.org/2000/svg">
<g clip-path="url(#clip0_92_743)">
<path d="M0 732.118C23.5294 732.118 58.8235 682.706 100 675.647C123.529 675.647 141.176 725.059 200 732.118C241.176 732.118 258.824 682.706 300 682.706C341.176 682.706 358.824 732.118 400 732.118C441.176 732.118 458.824 682.706 500 682.706C541.176 682.706 558.824 732.118 600 732.118C641.176 732.118 658.824 682.706 700 682.706C741.177 682.706 758.824 732.118 800 732.118" stroke="black" stroke-width="18" stroke-linecap="round" stroke-linejoin="round"/>
<path d="M80.4705 682.941L53.5293 631.412L747.647 586.706C693.059 636.353 622.941 676.588 552 709.529" stroke="black" stroke-width="18" stroke-linecap="round" stroke-linejoin="round"/>
<path d="M329.883 151.412C448 187.529 613.177 362 669.412 549.529C638.589 537.412 615.53 525.059 572.236 536.118C530.353 383.765 455.412 238.235 329.883 151.412Z" stroke="black" stroke-width="18" stroke-linecap="round" stroke-linejoin="round"/>
<path d="M110.235 68C261.529 132.706 469.058 312.824 507.176 552.706C332.705 482.353 199.882 519.882 107.411 576.941C248.47 397.647 185.176 193.765 110.235 68Z" stroke="black" stroke-width="18" stroke-linecap="round" stroke-linejoin="round"/>
</g>
<defs>
<clipPath id="clip0_92_743">
<rect width="800" height="800" fill="white"/>
</clipPath>
</defs>
</svg>
