<svg width="800" height="800" viewBox="0 0 800 800" fill="none" xmlns="http://www.w3.org/2000/svg">
<path fill-rule="evenodd" clip-rule="evenodd" d="M507.985 1.82552L65.1541 34.5211C29.4287 37.6091 17 60.9448 17 88.9125V574.187C17 595.97 24.7389 614.61 43.4099 639.522L147.505 774.824C164.607 796.608 180.157 801.28 212.81 799.728L727.059 768.608C770.539 765.512 783 745.273 783 711.065V165.128C783 147.448 776.013 142.352 755.446 127.264L610.559 25.1532C576.362 0.297537 562.381 -2.84642 507.985 1.81752V1.82552ZM224.438 156.192C182.446 159.016 172.923 159.656 149.074 140.272L88.4429 92.0644C82.2805 85.8245 85.3777 78.0406 100.904 76.4886L526.608 45.393C562.357 42.273 580.972 54.7289 594.953 65.6088L667.965 118.488C671.086 120.064 678.849 129.368 669.509 129.368L229.88 155.824L224.438 156.192ZM175.484 706.401V242.943C175.484 222.703 181.702 213.367 200.317 211.799L705.259 182.247C722.385 180.703 730.124 191.583 730.124 211.791V672.161C730.124 692.401 727.003 709.521 699.048 711.065L215.851 739.065C187.896 740.609 175.492 731.305 175.492 706.401H175.484ZM652.463 267.79C655.56 281.79 652.463 295.79 638.458 297.39L615.169 302.006V644.186C594.945 655.066 576.33 661.282 560.772 661.282C535.907 661.282 529.697 653.498 511.074 630.186L358.777 390.669V622.402L406.955 633.306C406.955 633.306 406.955 661.306 368.084 661.306L260.924 667.522C257.803 661.282 260.924 645.738 271.784 642.642L299.77 634.882V328.486L260.932 325.342C257.811 311.342 265.573 291.126 287.342 289.558L402.321 281.822L560.78 524.435V309.798L520.389 305.158C517.268 288.014 529.697 275.558 545.223 274.038L652.463 267.79Z" fill="black"/>
</svg>
