<svg width="800" height="800" viewBox="0 0 800 800" fill="none" xmlns="http://www.w3.org/2000/svg">
<g clip-path="url(#clip0_92_743)">
<path d="M29.7501 0.000388913C21.1796 0.000388913 13.327 3.61537 7.99965 9.53944C3.19985 14.5554 0.216207 21.3789 0 28.7991V30.771C0.095131 34.2908 0.786986 37.5944 2.02369 40.63C2.07558 40.8981 2.18801 41.1143 2.28314 41.3824C3.25175 43.6742 4.47115 45.8016 6.01919 47.7821C6.54674 48.5345 7.14347 49.2264 7.78344 49.8577C7.90709 50.0337 8.04914 50.1961 8.20721 50.342L103.036 162.925L137.274 203.563L239.791 325.227L274.029 365.805L365.813 474.773L399.991 515.351V799.992C419.361 800.042 437.985 792.522 451.89 779.037C451.95 779.037 451.95 779.037 451.95 778.976L462.025 766.981L708.216 474.773L792.485 374.713C792.908 374.289 793.28 373.805 793.661 373.329C795.468 371.089 796.904 368.573 797.968 365.805C799.308 362.501 800 358.878 800 355.029V29.7591C800 21.9151 796.956 14.7111 791.948 9.48755C789.18 6.47804 785.814 4.07967 782.066 2.44599C778.318 0.812323 774.27 -0.0206524 770.181 0.000388913H29.7501Z" fill="black"/>
<path d="M29.7501 0.000388911C21.1796 0.000388911 13.327 3.61537 7.99965 9.53944C3.19986 14.5554 0.216207 21.3789 0 28.7991V30.7709C0.095131 34.2908 0.786993 37.5944 2.0237 40.63C2.07559 40.8981 2.18801 41.1143 2.28314 41.3824C3.25175 43.6742 4.47116 45.8016 6.0192 47.7821C6.54674 48.5345 7.14347 49.2264 7.78345 49.8577C7.90709 50.0337 8.04915 50.1961 8.20721 50.342L103.036 162.925L137.274 203.563L239.791 325.227L274.029 365.805L365.813 474.773L399.991 515.351V799.992C419.361 800.042 437.985 792.522 451.89 779.037C451.95 779.037 451.95 779.037 451.95 778.976L462.025 766.981L708.216 474.773L792.485 374.713C792.908 374.289 793.28 373.805 793.661 373.329C795.468 371.089 796.904 368.573 797.968 365.805C799.308 362.501 800 358.878 800 355.029V29.7591C800 21.9151 796.956 14.7111 791.948 9.48755C789.18 6.47804 785.814 4.07967 782.066 2.446C778.318 0.812327 774.27 -0.0206524 770.181 0.000388911H29.7501Z" fill="url(#paint0_linear_92_743)"/>
<path d="M400 678.293V799.992C380.635 800.009 362.022 792.491 348.102 779.028C348.05 779.028 348.05 779.028 348.05 778.985L337.975 766.981L91.7841 474.773L7.99965 375.301C7.78558 375.178 7.61602 374.99 7.51535 374.765L6.18352 373.225C6.07974 373.113 6.01055 373.009 5.92406 372.897C4.28175 370.738 2.96743 368.348 2.02369 365.805C0.777661 362.699 0.0924905 359.396 0 356.05V354.026C0 353.386 0.0518819 352.738 0.164309 352.098C0.743744 345.387 3.62362 339.402 7.99965 334.715C10.7766 331.721 14.1418 329.333 17.8846 327.701C21.6273 326.068 25.6668 325.226 29.7501 325.228H102.456L136.643 365.805L228.427 474.773L378.924 653.386L399.939 678.345L400 678.293Z" fill="#FCD1CA"/>
<path d="M400 515.377V678.276L399.948 678.328L378.95 653.378L228.453 474.791L136.651 365.831L102.456 325.227L7.44616 212.523C5.1023 209.895 3.25611 206.862 1.99774 203.572C0.769568 200.431 0.0937055 197.102 0 193.73V191.724C0.195798 184.541 3.04576 177.686 7.99965 172.482C10.7555 169.457 14.1151 167.043 17.8615 165.397C21.608 163.751 25.658 162.909 29.7501 162.925H103.053L137.3 203.572L239.808 325.227L274.003 365.831L365.805 474.782L400 515.377Z" fill="#FF9D8D"/>
</g>
<defs>
<linearGradient id="paint0_linear_92_743" x1="80883.2" y1="-10774.2" x2="11576.9" y2="59306.6" gradientUnits="userSpaceOnUse">
<stop stop-color="#FF6660"/>
<stop offset="1" stop-color="#FB4444"/>
</linearGradient>
<clipPath id="clip0_92_743">
<rect width="800" height="800" fill="white"/>
</clipPath>
</defs>
</svg>
