<svg width="800" height="800" viewBox="0 0 800 800" fill="none" xmlns="http://www.w3.org/2000/svg">
<path d="M658.333 10C736.666 10 800 73.3337 800 151.667V648.333C800 726.666 736.666 790 658.333 790H141.667C63.3337 790 0 726.666 0 648.333V151.667C0 73.3337 63.3337 10 141.667 10H658.333ZM573.666 291C549.999 291 530.333 294.667 514.666 302.667C500.333 309.334 487.999 320 479.666 333.333C472.333 345.666 468.333 359.334 468.333 373.667C468 385.334 470.666 397 475.999 407.667C482.332 419 491 428.667 501.333 436C516 446 531.666 454 548.666 460C564.999 466.333 576 471.334 581.333 475.667C586.666 480 589.333 484.333 589.333 489C589.333 495 585.666 500.667 580.333 503C574.333 506 565.333 507.667 552.666 507.667C539.333 507.667 526 506 513.333 502.667C498.666 499.334 485 494 472 486.333C471 485.666 469.999 485.333 468.999 486C467.999 486.667 467.666 488 467.666 489V547C467.333 549.667 469 552 471.333 553.333C482 558.333 493.666 562 505.333 564C520.333 567 535.333 568.333 550.666 568.333C574.666 568.333 594.666 564.667 610.999 557.667C625.999 551.667 639 541.333 648.333 528C657 515 661.666 499.334 661.333 483.667C661.666 471.667 658.999 460.001 653.666 449.334C647.333 438.001 638.333 428.667 627.333 421.667C611.333 411.667 593.999 403.333 575.999 397.333C567.999 394 559.999 390.333 552.333 386.333C548 384 543.999 381 540.999 377.333C538.999 374.667 537.666 371.667 537.666 368.667C537.666 365.667 538.666 362.334 540.333 359.667C542.666 356.334 546.333 354 550.666 353C556.999 351.333 563.999 350.334 570.666 350.667C583.333 350.667 595.666 352.333 607.999 355C619.332 357.333 629.999 361 639.999 366.333C641.332 367 642.999 367 645.999 366.333C646.999 365.666 647.666 364.333 647.666 363V308.667C647.666 307.334 647.333 306 647 304.667C646.333 303.334 644.999 302 643.666 301.667C634.666 298 624.999 295.333 614.999 294C601.333 292 587.333 291 573.666 291ZM286.667 208.333C276.667 208.333 266.666 208.334 256.333 208.667C246 209 236.333 209 227.333 209.333C218.333 209.666 210 209.667 202 210C194.333 210.333 189 210.333 183.333 210.333C181 210.333 180 211.667 180 214V557C180 560 181.333 561.333 184 561.333H248.667C251 561 252.666 559 252.333 556.667V449.667C258.666 449.667 263.334 449.667 266.667 450C270 450.333 275.333 450.333 283.333 450.333C310.666 450.333 335.666 447.333 358.333 439C380 431 398.667 417 412 398.333C425.333 379.666 432 356 432 327.333C432 312.333 429.333 298 424.333 284C419 269.667 410.667 256.667 400 246C387.333 233.667 372 224.334 355.333 218.667C336.666 211.667 314 208.333 286.667 208.333ZM289 274C302.667 273.667 316 275.667 328.333 280.667C338 284.334 346 291 351.667 299.667C357 308.667 359.666 319 359.333 329.333C359.333 344 356 355.334 349 363.667C341.667 372 332.333 378.333 321.667 381.333C309.334 385.333 296.333 387.333 283.333 387.333H265.667C261.667 387.333 257.334 387 252.667 386.667V274.667C255 274.334 259.667 274 266.333 274.333C272.666 274 280.333 274 289 274Z" fill="#001E36"/>
</svg>
