<svg width="800" height="800" viewBox="0 0 800 800" fill="none" xmlns="http://www.w3.org/2000/svg">
<g clip-path="url(#clip0_114_2)">
<path d="M400.46 470.526C439.412 470.526 470.989 438.949 470.989 399.996C470.989 361.044 439.412 329.466 400.46 329.466C361.507 329.466 329.93 361.044 329.93 399.996C329.93 438.949 361.507 470.526 400.46 470.526Z" fill="#61DAFB"/>
<path d="M400.453 544.5C609.467 544.5 778.906 479.805 778.906 400C778.906 320.194 609.467 255.5 400.453 255.5C191.439 255.5 22 320.194 22 400C22 479.805 191.439 544.5 400.453 544.5Z" stroke="#61DAFB" stroke-width="30"/>
<path d="M275.326 472.25C379.833 653.261 520.58 767.653 589.693 727.75C658.806 687.847 630.114 508.761 525.607 327.75C421.1 146.739 280.353 32.3475 211.24 72.2501C142.127 112.153 170.819 291.239 275.326 472.25Z" stroke="#61DAFB" stroke-width="30"/>
<path d="M275.326 327.757C170.819 508.768 142.127 687.854 211.24 727.756C280.354 767.659 421.101 653.268 525.607 472.257C630.114 291.245 658.807 112.159 589.693 72.2567C520.58 32.3541 379.833 146.745 275.326 327.757Z" stroke="#61DAFB" stroke-width="30"/>
</g>
<defs>
<clipPath id="clip0_114_2">
<rect width="800" height="800" fill="white"/>
</clipPath>
</defs>
</svg>
