<svg width="800" height="800" viewBox="0 0 800 800" fill="none" xmlns="http://www.w3.org/2000/svg">
<path d="M174.545 61.8403L400 38L625.454 61.8403L799.999 296.203L400 762.1L0 296.203L174.545 61.8403Z" fill="#FDB300"/>
<path d="M162.02 296.203L400 762.1L0 296.203H162.02Z" fill="#EA6C00"/>
<path d="M637.979 296.203L399.999 762.1L799.999 296.203H637.979Z" fill="#EA6C00"/>
<path d="M162.02 296.203H637.98L400 762.1L162.02 296.203Z" fill="#FDAD00"/>
<path d="M400 38L174.544 61.84L162.02 296.203L400 38Z" fill="#FDD231"/>
<path d="M399.999 38L625.455 61.84L637.979 296.203L399.999 38Z" fill="#FDD231"/>
<path d="M800 296.203L625.453 61.8401L637.98 296.203H800Z" fill="#FDAD00"/>
<path d="M0 296.203L174.545 61.8401L162.02 296.203H0Z" fill="#FDAD00"/>
<path d="M400 38L162.02 296.203H637.98L400 38Z" fill="#FEEEB7"/>
</svg>
