<svg width="800" height="800" viewBox="0 0 800 800" fill="none" xmlns="http://www.w3.org/2000/svg">
<path fill-rule="evenodd" clip-rule="evenodd" d="M705.029 0H95.0989C42.6281 0 0.0722604 42.4727 0.000766631 94.9117V703.576C-0.100698 728.849 9.87331 753.121 27.7186 771.028C45.5639 788.934 69.8108 799 95.0989 799H705.029C730.295 798.966 754.509 788.885 772.327 770.982C790.144 753.079 800.101 728.826 799.999 703.576V94.9117C799.928 42.5227 757.45 0.0705577 705.029 0ZM345.018 575.49C344.984 583.937 341.585 592.023 335.573 597.96C329.56 603.896 321.429 607.195 312.977 607.128H179.687C162.254 607.057 148.159 592.913 148.159 575.49V179.064C148.159 161.641 162.254 147.497 179.687 147.427H312.977C330.431 147.497 344.563 161.621 344.633 179.064L345.018 575.49ZM652.61 393.48C652.61 401.938 649.223 410.043 643.203 415.988C637.183 421.932 629.032 425.22 620.569 425.119H487.279C469.825 425.047 455.693 410.924 455.623 393.48V179.064C455.693 161.621 469.825 147.497 487.279 147.427H620.569C638.003 147.497 652.098 161.641 652.098 179.064L652.61 393.48Z" fill="url(#paint0_linear_92_743)"/>
<defs>
<linearGradient id="paint0_linear_92_743" x1="124920" y1="51136" x2="124920" y2="0" gradientUnits="userSpaceOnUse">
<stop stop-color="#0052CC"/>
<stop offset="1" stop-color="#2684FF"/>
</linearGradient>
</defs>
</svg>
