<svg width="800" height="800" viewBox="0 0 800 800" fill="none" xmlns="http://www.w3.org/2000/svg">
<path fill-rule="evenodd" clip-rule="evenodd" d="M689.404 69.2845C696.388 67.7337 703.288 67 710.004 67C772.588 67 820.238 130.899 791.355 197.032C783.338 215.424 768.371 230.398 749.971 238.436C676.771 270.435 606.32 208.537 622.304 136.435C629.637 103.335 656.337 76.6215 689.404 69.2845ZM16.6668 80.3233H150.001C159.201 80.3233 166.668 87.8104 166.668 96.9983V342.471C166.668 466.416 269.835 567.25 396.669 567.25C518.203 567.25 618.037 474.637 626.137 357.829C626.754 349.074 634.404 342.471 643.17 342.471H776.221C785.605 342.471 793.371 350.225 792.971 359.596C783.855 567.567 609.57 734 396.669 734C177.951 734 0 558.346 0 342.471V96.9983C0 87.8104 7.45005 80.3233 16.6668 80.3233Z" fill="white"/>
</svg>
