<svg width="800" height="800" viewBox="0 0 800 800" fill="none" xmlns="http://www.w3.org/2000/svg">
<path d="M771.717 86.2204L606.988 6.94422C597.686 2.46061 587.218 0.981014 577.036 2.71054C566.855 4.44007 557.464 9.29305 550.165 16.5967L10.9268 508.018C4.38422 513.952 0.46788 522.241 0.039266 531.062C-0.389348 539.882 2.70486 548.512 8.64124 555.052C9.35546 555.823 10.0697 556.566 10.841 557.251L54.8657 597.232C60.6184 602.466 68.0233 605.52 75.7943 605.864C83.5653 606.208 91.2114 603.821 97.4048 599.117L746.919 106.782C751.825 103.061 757.672 100.782 763.804 100.203C769.935 99.6234 776.106 100.766 781.623 103.503C787.139 106.239 791.782 110.461 795.029 115.692C798.276 120.923 799.997 126.956 800 133.112V131.199C799.999 121.8 797.344 112.593 792.341 104.636C787.338 96.6793 780.189 90.2959 771.717 86.2204Z" fill="#0065A9"/>
<path d="M771.717 712.776L606.988 792.081C597.683 796.552 587.218 798.025 577.04 796.296C566.861 794.567 557.47 789.721 550.165 782.429L10.9268 290.979C4.38422 285.045 0.46788 276.756 0.039266 267.935C-0.389348 259.114 2.70486 250.485 8.64124 243.945C9.35546 243.173 10.0697 242.431 10.841 241.746L54.8657 201.765C60.6243 196.509 68.0461 193.441 75.8362 193.097C83.6264 192.752 91.2902 195.153 97.4905 199.88L746.919 692.215C751.825 695.936 757.672 698.215 763.804 698.794C769.935 699.373 776.106 698.231 781.623 695.494C787.139 692.758 791.782 688.536 795.029 683.305C798.276 678.074 799.997 672.041 800 665.885V667.941C799.969 677.314 797.3 686.49 792.299 694.418C787.297 702.347 780.165 708.709 771.717 712.776Z" fill="#007ACC"/>
<path d="M606.988 792.081C597.683 796.552 587.218 798.025 577.04 796.296C566.861 794.567 557.47 789.721 550.165 782.429C554.267 786.476 559.474 789.223 565.132 790.326C570.79 791.428 576.647 790.837 581.97 788.626C587.293 786.416 591.845 782.684 595.056 777.898C598.266 773.112 599.992 767.486 600.018 761.724V37.2725C600.022 31.4835 598.308 25.8233 595.092 21.009C591.876 16.1947 587.303 12.4428 581.952 10.2287C576.601 8.01454 570.713 7.43775 565.034 8.57138C559.355 9.70501 554.14 12.4981 550.051 16.5967C557.351 9.29566 566.74 4.44237 576.92 2.70804C587.099 0.973706 597.567 2.44402 606.874 6.91563L771.574 86.0776C780.073 90.1327 787.251 96.5074 792.281 104.466C797.311 112.424 799.987 121.642 800 131.056L800 667.941C800.002 677.347 797.346 686.562 792.337 694.525C787.328 702.488 780.17 708.874 771.688 712.948L606.988 792.081Z" fill="#1F9CF0"/>
</svg>
