<svg width="800" height="800" viewBox="0 0 800 800" fill="none" xmlns="http://www.w3.org/2000/svg">
<g clip-path="url(#clip0_92_743)">
<path d="M457.879 250.898C442.445 258.615 435.757 273.02 435.757 312.12C435.757 312.12 443.474 304.403 455.821 299.773C464.824 296.429 471.255 292.056 475.885 288.712C489.262 278.68 491.32 266.589 491.32 245.496C491.062 245.496 469.969 244.21 457.879 250.898Z" fill="#FBBD71"/>
<path d="M363.473 259.901C350.097 270.962 346.753 289.998 346.753 289.998L303.537 455.657L268.039 320.094C264.695 305.689 258.007 287.94 247.974 275.592C235.627 259.901 209.904 258.872 206.817 258.872C204.502 258.872 179.035 259.901 165.659 275.592C155.627 287.94 148.939 305.689 145.595 320.094L112.154 455.657L68.9389 289.998C68.9389 289.998 65.5949 272.248 52.2187 259.901C31.1254 240.866 0 245.496 0 245.496L82.3152 555.464C82.3152 555.464 109.068 557.779 122.444 551.091C140.193 542.088 149.196 535.657 159.228 493.213C169.261 455.4 196.013 345.303 198.071 337.586C199.1 334.242 201.415 324.21 208.103 324.21C214.791 324.21 217.106 333.213 218.135 337.586C220.45 345.303 246.945 455.4 256.978 493.213C268.039 535.4 275.756 542.088 293.762 551.091C307.138 557.779 333.891 555.464 333.891 555.464L415.692 245.496C415.692 245.496 384.566 241.123 363.473 259.901Z" fill="black"/>
<path d="M491.061 295.399C491.061 295.399 485.402 303.116 474.34 309.805C466.623 314.178 459.935 316.493 452.218 320.866C438.842 327.554 435.498 334.242 435.498 344.274V347.618V364.338V367.682V554.435C435.498 554.435 456.591 556.75 469.968 550.062C487.717 541.059 491.061 532.313 491.061 494.499V307.747V295.399Z" fill="black"/>
<path d="M695.563 401.123L800 246.525C800 246.525 756.785 238.808 734.405 258.872C720 271.219 705.595 294.37 705.595 294.37L667.781 349.933C665.466 353.277 663.408 355.592 660.064 355.592C656.72 355.592 653.376 352.248 652.347 349.933L614.534 294.37C614.534 294.37 599.1 272.248 585.723 258.872C563.601 238.808 520.129 246.525 520.129 246.525L621.222 400.866L517.813 555.207C517.813 555.207 563.344 560.866 585.723 540.801C600.129 528.454 613.505 507.361 613.505 507.361L651.318 451.798C653.633 448.454 655.691 446.139 659.035 446.139C662.379 446.139 665.724 449.483 666.752 451.798L704.566 507.361C704.566 507.361 718.971 528.454 732.347 540.801C754.47 560.866 798.971 555.207 798.971 555.207L695.563 401.123Z" fill="black"/>
</g>
<defs>
<clipPath id="clip0_92_743">
<rect width="800" height="800" fill="white"/>
</clipPath>
</defs>
</svg>
